<svg width="16" height="16" viewBox="0 0 16 16" fill="none" xmlns="http://www.w3.org/2000/svg">
<path d="M8.00006 1.9334C4.64954 1.9334 1.9334 4.64954 1.9334 8.00006C1.9334 11.3506 4.64954 14.0667 8.00006 14.0667C11.3506 14.0667 14.0667 11.3506 14.0667 8.00006C14.0667 4.64954 11.3506 1.9334 8.00006 1.9334ZM0.733398 8.00006C0.733398 3.9868 3.9868 0.733398 8.00006 0.733398C12.0133 0.733398 15.2667 3.9868 15.2667 8.00006C15.2667 12.0133 12.0133 15.2667 8.00006 15.2667C3.9868 15.2667 0.733398 12.0133 0.733398 8.00006Z" fill="#515A62"/>
<path d="M9.23542 4.93209C9.36607 4.80144 9.57789 4.80144 9.70854 4.93209L11.3795 6.60308C11.6859 6.90948 11.4689 7.43338 11.0356 7.43338L4.81136 7.43339C4.62659 7.43339 4.47681 7.2836 4.47681 7.09884V6.59275C4.47681 6.40798 4.62659 6.2582 4.81136 6.2582L9.37267 6.25819L8.87756 5.76308C8.74691 5.63243 8.74691 5.4206 8.87756 5.28995L9.23542 4.93209Z" fill="#515A62"/>
<path d="M6.76458 11.068C6.63393 11.1987 6.42211 11.1987 6.29146 11.068L4.62047 9.39704C4.31407 9.09064 4.53107 8.56674 4.96439 8.56674L11.1886 8.56673C11.3734 8.56673 11.5232 8.71652 11.5232 8.90129V9.40737C11.5232 9.59214 11.3734 9.74192 11.1886 9.74192L6.62733 9.74193L7.12244 10.237C7.25309 10.3677 7.25309 10.5795 7.12244 10.7102L6.76458 11.068Z" fill="#515A62"/>
</svg>
